Coordinates
version=1
nRows=11
nColumns=36
inDegrees=yes

Units are S.I. units (second, meters, Newtons, ...)
If the header above contains a line with 'inDegrees', this indicates whether rotational values are in degrees (yes) or radians (no).

endheader
time	pelvis_tilt	pelvis_list	pelvis_rotation	pelvis_tx	pelvis_ty	pelvis_tz	hip_flexion_r	hip_adduction_r	hip_rotation_r	knee_angle_r	knee_angle_r_beta	ankle_angle_r	subtalar_angle_r	mtp_angle_r	hip_flexion_l	hip_adduction_l	hip_rotation_l	knee_angle_l	knee_angle_l_beta	ankle_angle_l	subtalar_angle_l	mtp_angle_l	lumbar_extension	lumbar_bending	lumbar_rotation	arm_flex_r	arm_add_r	arm_rot_r	elbow_flex_r	pro_sup_r	arm_flex_l	arm_add_l	arm_rot_l	elbow_flex_l	pro_sup_l
      0.00000000	      2.24315595	     -2.59730056	    -16.85435942	      1.04093939	      0.97310474	     -0.01195644	     17.23939495	     -1.39342850	      1.43322295	     29.67859274	      0.51798916	     -1.73975184	    -15.68707390	     -6.34468794	     -6.30349896	      1.48464485	     -1.04572184	      3.59221509	      0.06269598	     11.14673432	      0.36243852	     -6.34468794	     -9.23622375	     -3.34822467	     -0.02639496	      2.85775315	     -7.27043541	      1.99609783	     24.50423530	     89.00328260	      3.25345535	    -14.68828475	      8.56573666	     21.68451719	     84.57955749
      0.01666670	      2.53275053	     -2.28769568	    -16.25676295	      1.04068717	      0.97419617	     -0.01195181	     16.68778895	     -2.75331905	     -2.37791270	     27.31450991	      0.47672813	      1.79632530	     -8.36148259	     -6.48726638	     -5.95866351	      1.74332155	     -0.15737850	      5.29675978	      0.09244590	     12.17984235	     -0.78633374	     -6.48726638	     -8.93111939	     -4.80058514	     -0.80073934	      3.06046977	     -6.92684971	      2.72033326	     23.83977553	     88.60929216	      3.73715121	    -15.31858000	      8.88780780	     20.99690628	     84.08302670
      0.03333330	      1.71016367	     -1.76515707	    -16.13783772	      1.04104091	      0.97343971	     -0.01069635	     16.90551558	     -3.10496644	     -2.78180803	     24.54441611	      0.42838087	      3.17292874	     -6.69646690	     -6.91302121	     -4.96345567	      1.95268887	      0.31220661	      5.57023293	      0.09721890	     13.63780554	      0.26380380	     -6.91302121	     -7.32777677	     -5.67259386	     -0.33951712	      2.58422172	     -6.74794424	      1.32790878	     23.14941277	     97.14799697	      4.64223563	    -15.58474283	      8.92827394	     19.29550518	     92.18348711
      0.05000000	      1.23983416	     -1.52428820	    -16.22063797	      1.04210145	      0.97249657	     -0.01031324	     17.41375194	     -3.31367661	     -2.84002224	     23.92771405	      0.41761739	      4.90534741	     -4.97278064	     -7.12468698	     -4.21669083	      2.11826494	     -0.30026210	      6.18905596	      0.10801940	     14.69214720	      1.27045282	     -7.12468698	     -6.17312880	     -6.06321928	     -0.16202746	      2.35498884	     -6.85233161	      2.43913694	     22.44500281	     97.65078097	      4.92292213	    -15.74485169	     10.14335326	     18.43031063	     93.49008907
      0.06666670	      0.80171313	     -1.30880489	    -16.66169699	      1.04308104	      0.96930303	     -0.01013107	     17.95301400	     -3.40972308	     -2.50506694	     23.99033800	      0.41871039	      5.90505371	     -4.36058434	     -7.23329904	     -3.45155677	      2.27919348	     -1.61724960	      7.07948146	      0.12356026	     15.56741045	      2.44961734	     -7.23329904	     -5.09369324	     -6.40044254	      0.50340495	      2.08683722	     -6.95705156	      3.33946719	     21.90441035	     98.92411755	      5.45854779	    -15.74258598	     11.22028321	     17.49154193	     95.67456743
      0.08333330	      0.53373280	     -1.22021509	    -17.02962280	      1.04375106	      0.96921130	     -0.00971366	     18.19698951	     -3.42207219	     -2.10683463	     24.26962669	      0.42358489	      6.38957927	     -4.28466192	     -7.27409366	     -3.00538180	      2.29999545	     -2.36839473	      7.60686866	      0.13276490	     15.73278809	      2.82876195	     -7.27409366	     -4.55945997	     -6.52283784	      0.66660165	      1.84808465	     -6.88397236	      3.36957988	     21.93021082	     96.54711875	      5.24997653	    -15.85291853	     11.01864509	     18.06248269	     93.49984731
      0.10000000	      0.00456721	     -1.12853970	    -17.39009398	      1.04437432	      0.96847986	     -0.00922726	     18.64977235	     -3.28961715	     -1.80280751	     24.50625083	      0.42771476	      6.42198931	     -4.51031943	     -7.35063295	     -2.23343450	      2.15685527	     -3.55172873	      8.27970271	      0.14450807	     16.36775276	      4.28130674	     -7.35063295	     -3.59640600	     -6.51008629	      1.64813290	      1.39657913	     -6.85077685	      1.73141327	     21.59133513	    102.43714444	      6.03318278	    -15.61604741	     11.08108676	     16.80202050	    101.22404957
      0.11666670	     -0.21537666	     -1.12603592	    -17.62548693	      1.04481522	      0.96820076	     -0.00901515	     18.62693670	     -3.16714575	     -1.67514701	     24.56198288	      0.42868747	      6.28655923	     -4.61523097	     -7.36077076	     -1.90197865	      2.03978125	     -4.00635556	      8.62610231	      0.15055389	     16.33761542	      4.32007663	     -7.36077076	     -3.26094846	     -6.46798090	      1.76232026	      1.43362146	     -6.86328910	      2.15953826	     21.18458387	    102.04412217	      6.14774035	    -15.63218569	     11.21115706	     16.47038289	    100.83342384
      0.13333330	     -0.42399131	     -1.09942011	    -17.89263168	      1.04492122	      0.96813718	     -0.00874846	     18.56558252	     -3.08357767	     -1.62223003	     24.55224006	      0.42851743	      5.88446849	     -4.87824531	     -7.37709008	     -1.61077501	      1.90518445	     -4.77129159	      8.88575689	      0.15508571	     16.40870049	      4.96204771	     -7.37709008	     -2.93381616	     -6.41289465	      2.11115961	      1.42579839	     -6.92869350	      2.87984991	     20.86827619	    101.49507616	      6.28892629	    -15.58178957	     11.63467774	     16.23707242	    100.32220720
      0.15000000	     -0.57480139	     -1.06786353	    -18.09890551	      1.04507407	      0.96782960	     -0.00849130	     18.45022027	     -2.98669491	     -1.50432251	     24.45388498	      0.42680081	      5.41218484	     -5.30630370	     -7.40489217	     -1.41528745	      1.82844220	     -5.29888135	      9.04914378	      0.15793735	     16.37234071	      5.21841235	     -7.40489217	     -2.80543374	     -6.37466317	      2.69229369	      0.90330996	     -7.04068256	      2.07197144	     21.74207659	    104.65018417	      6.58624831	    -15.73523857	     12.65855192	     16.76051805	    104.47449941
      0.16666670	     -0.58430052	     -1.08144166	    -18.21502027	      1.04515357	      0.96775266	     -0.00837232	     18.16491721	     -2.94833734	     -1.53804503	     24.30445541	      0.42419277	      4.90506345	     -5.54634782	     -7.41312865	     -1.36356282	      1.74514471	     -5.57099572	      9.15253064	      0.15974179	     16.26519774	      5.30006895	     -7.41312865	     -2.82749229	     -6.29184105	      2.73885892	      1.02100362	     -7.03336274	      2.30772669	     21.49348705	    103.52086602	      6.67734393	    -15.72280611	     12.77797619	     16.76616787	    103.30892251
